:SAMPLES-PER-SECOND 30
:FULLY-SPECIFIED
:DEGREES
503
root  7.90162 30.585 -32.3708 175.58 36.2153 -178.777
RightUpLeg  -25.4023 -0.106712 -2.48662
RightLeg  56.6527 0.834783 1.03526
RightFoot  -6.88208 -0.0420997 -0.322622
RightToes  -44.139 -0.252362 -0.337289
Spine  4.43664 -1.75147 -1.29993
Spine1  7.10836 -3.57311 -2.70111
HEad  -22.764 -12.4886 13.1694
LeftShoulder1  0 -2.42657e-020 -4.95415e-022
LeftArm  -174.192 -81.1434 85.2726
LeftForeArm  27.175 -71.8887 -32.8403
LeftHand  0.0358538 -1.45774 -3.20297
RightShoulder  0 2.42657e-020 1.07489e-018
RightArm  -104.177 65.7324 -19.1852
RightForeArm  113.086 72.1234 32.9425
RightHand  -4.99975 6.08472 -78.4924
LeftUpLeg  -20.8411 -18.6339 2.69472
LeftLeg  52.4863 -5.31455 -6.04855
LeftFoot  -14.1408 0.253481 2.04345
LeftToes  -37.5829 2.34596e-006 -6.06653e-008
504
root  8.78695 33.2954 -33.642 177.075 32.1737 -177.6
RightUpLeg  -15.4328 -5.3479 -2.43366
RightLeg  41.2486 3.216 2.44615
RightFoot  6.56117 0.00618134 0.269681
RightToes  -53.4358 -0.333691 -0.3778
Spine  2.07322 -1.83547 -0.901469
Spine1  2.96426 -3.87342 -2.00104
HEad  -24.9312 -14.8575 14.0987
LeftShoulder1  0 -2.42657e-020 -4.95415e-022
LeftArm  171.574 -78.6862 96.6296
LeftForeArm  30.4534 -72.9846 -35.4389
LeftHand  0.0856164 -2.79178 -3.89206
RightShoulder  0 2.42657e-020 1.07489e-018
RightArm  -109.445 63.1647 -25.1555
RightForeArm  116.352 73.3267 35.859
RightHand  -5.45258 6.6363 -78.4799
LeftUpLeg  -9.79935 -20.165 2.6567
LeftLeg  32.7687 -8.2053 -4.54353
LeftFoot  -2.64412 0.0104339 0.452094
LeftToes  -35.6667 2.34596e-006 -6.06653e-008
505
root  9.51815 36.4075 -34.6829 -179.897 27.9526 -176.517
RightUpLeg  -4.22824 -11.4848 -2.96722
RightLeg  18.142 11.2197 2.87407
RightFoot  27.3106 -1.16658 5.17656
RightToes  -50.948 -0.3113 -0.368261
Spine  -0.594513 -1.90914 -0.333591
Spine1  -1.90846 -4.08976 -1.60389
HEad  -26.4352 -17.7445 14.5554
LeftShoulder1  0 -2.42657e-020 -4.95415e-022
LeftArm  157.777 -78.2939 109.023
LeftForeArm  34.0477 -74.4011 -39.4834
LeftHand  0.126449 -3.53589 -4.47365
RightShoulder  0 2.42657e-020 1.07489e-018
RightArm  -106.797 61.3401 -23.224
RightForeArm  128.697 76.8566 48.8104
RightHand  -5.33958 6.44089 -78.9869
LeftUpLeg  0.320664 -18.0907 4.18022
LeftLeg  8.28013 -13.7051 -1.0926
LeftFoot  18.7023 0.749092 -4.54667
LeftToes  -23.1704 2.34596e-006 -6.06653e-008
506
root  9.94927 39.0588 -35.4309 -174.635 24.0067 -177.234
RightUpLeg  -2.20191 -12.1939 -3.86026
RightLeg  6.1725 7.59244 0.331315
RightFoot  34.2737 -1.15649 4.1269
RightToes  -44.6562 -0.256706 -0.339885
Spine  -3.98091 -1.62381 -0.756728
Spine1  -8.13061 -3.7294 -2.91988
HEad  -26.2645 -20.728 15.5795
LeftShoulder1  0 -2.42657e-020 -4.95415e-022
LeftArm  143.88 -74.9224 123.786
LeftForeArm  30.4994 -72.8469 -35.0917
LeftHand  0.136649 -3.82847 -4.4649
RightShoulder  0 2.42657e-020 1.07489e-018
RightArm  -106.81 58.9223 -21.8234
RightForeArm  144.382 78.7184 61.7519
RightHand  -4.51903 5.23587 -81.2851
LeftUpLeg  -3.62174 -1.35589 4.8018
LeftLeg  3.97044 -22.3071 -0.110004
LeftFoot  29.1093 3.0273 -11.6225
LeftToes  -18.3934 2.34596e-006 -6.06653e-008
507
root  10.149 41.4189 -36.1612 -172.639 20.4597 -178.43
RightUpLeg  -0.717947 -6.89875 -5.3835
RightLeg  4.69592 -1.42984 -0.0240409
RightFoot  26.1776 0.272557 -0.79467
RightToes  -36.7701 -0.193209 -0.296159
Spine  -5.94745 -1.60736 -1.57764
Spine1  -11.8985 -3.74323 -3.76703
HEad  -26.3646 -23.2294 14.8421
LeftShoulder1  0 -2.42657e-020 -4.95415e-022
LeftArm  136.168 -74.0566 131.176
LeftForeArm  28.9279 -71.2752 -31.5553
LeftHand  0.157653 -4.80211 -4.13442
RightShoulder  0 2.42657e-020 1.07489e-018
RightArm  -103.729 58.7797 -17.9824
RightForeArm  147.671 79.0097 64.8189
RightHand  -4.1075 4.71988 -81.7641
LeftUpLeg  -4.43272 0.389044 3.36216
LeftLeg  4.86522 -18.2346 -0.370895
LeftFoot  26.2736 1.9829 -8.48164
LeftToes  -14.0881 2.34596e-006 -6.06653e-008
508
root  10.3727 43.3975 -36.8899 -174.814 17.8211 -178.382
RightUpLeg  4.46646 -4.13715 -5.67032
RightLeg  5.37053 -2.6346 -0.0761202
RightFoot  20.8991 0.276447 -1.12127
RightToes  -34.6288 -0.17706 -0.282815
Spine  -5.57027 -1.46303 -1.84596
Spine1  -11.3138 -3.49109 -3.61319
HEad  -27.2464 -25.2186 13.8836
LeftShoulder1  0 -2.42657e-020 -4.95415e-022
LeftArm  132.645 -74.6577 135.557
LeftForeArm  27.0648 -68.6212 -26.9292
LeftHand  0.169671 -6.21265 -3.49959
RightShoulder  0 2.42657e-020 1.07489e-018
RightArm  -97.3036 58.3529 -11.269
RightForeArm  144.356 78.8939 63.6171
RightHand  -5.29176 6.27028 -79.9975
LeftUpLeg  -0.298695 -5.51202 3.20559
LeftLeg  6.92317 -11.1429 -0.627852
LeftFoot  23.2016 0.938831 -4.571
LeftToes  -10.1546 2.34596e-006 -6.06653e-008
509
root  10.6034 44.9502 -37.4488 -176.163 16.3839 -178.044
RightUpLeg  7.7972 -2.71255 -5.33709
RightLeg  6.568 -1.00016 -0.0489905
RightFoot  18.4448 0.143259 -0.504736
RightToes  -34.5734 -0.176648 -0.282462
Spine  -5.23682 -1.2079 -1.91998
Spine1  -10.7394 -3.01598 -3.32818
HEad  -28.6618 -25.7908 14.4021
LeftShoulder1  0 -2.42657e-020 -4.95415e-022
LeftArm  134.94 -74.2303 134.831
LeftForeArm  22.3971 -62.4442 -19.8339
LeftHand  0.350486 -7.39382 -5.79573
RightShoulder  0 2.42657e-020 1.07489e-018
RightArm  -93.2319 58.3217 -5.77717
RightForeArm  126.344 75.433 42.4477
RightHand  -4.62562 5.39293 -80.9283
LeftUpLeg  3.36149 -8.21488 3.3334
LeftLeg  8.00973 -7.02943 -0.531563
LeftFoot  22.0319 0.538922 -2.76788
LeftToes  -10.0773 2.34596e-006 -6.06653e-008
510
root  10.8393 46.0214 -37.9217 -176.586 14.6947 -177.481
RightUpLeg  9.96326 -2.13515 -4.52825
RightLeg  7.63348 -0.196337 -0.0121409
RightFoot  20.3075 0.115554 -0.267646
RightToes  -36.4004 -0.190385 -0.293899
Spine  -5.21569 -1.41966 -1.28307
Spine1  -10.7083 -3.44498 -2.88155
HEad  -28.7877 -26.1146 15.0701
LeftShoulder1  0 -2.42657e-020 -4.95415e-022
LeftArm  142.266 -73.2399 129.141
LeftForeArm  17.5517 -52.5987 -13.3612
LeftHand  0.398252 -5.02937 -9.43225
RightShoulder  0 2.42657e-020 1.07489e-018
RightArm  -95.0633 60.6609 -4.99158
RightForeArm  104.641 62.5532 19.638
RightHand  -5.70624 7.03845 -77.7227
LeftUpLeg  3.07454 -8.36453 4.20221
LeftLeg  13.4872 -4.19241 -0.725443
LeftFoot  19.846 0.27008 -1.54375
LeftToes  -7.0097 2.34596e-006 -6.06653e-008
511
root  11.0967 46.6402 -38.3313 -176.859 13.0115 -177.437
RightUpLeg  10.2561 -3.39697 -4.58045
RightLeg  11.0423 2.45247 0.317963
RightFoot  23.9855 -0.0592837 0.656611
RightToes  -36.6445 -0.192248 -0.295393
Spine  -5.07471 -2.09415 -0.951682
Spine1  -10.5327 -5.33717 -2.31139
HEad  -28.9777 -26.0973 15.3965
LeftShoulder1  0 -2.42657e-020 -4.95415e-022
LeftArm  149.389 -71.0395 122.544
LeftForeArm  12.3087 -40.3435 -8.61126
LeftHand  0.173596 -2.08661 -9.91335
RightShoulder  0 2.42657e-020 1.07489e-018
RightArm  -106.316 63.6322 -17.812
RightForeArm  89.4564 36.7259 7.41439
RightHand  -7.71916 10.9919 -69.7352
LeftUpLeg  4.02133 -5.461 5.19181
LeftLeg  13.9475 -3.52069 -0.638834
LeftFoot  18.2716 0.213272 -1.32615
LeftToes  -5.86575 2.34596e-006 -6.06653e-008
512
root  11.326 46.924 -38.7071 -177.08 11.2213 -177.584
RightUpLeg  12.0547 -3.60982 -4.27143
RightLeg  10.4827 5.50075 0.656609
RightFoot  28.385 -0.471639 2.24226
RightToes  -41.0023 -0.226539 -0.320714
Spine  -4.23471 -1.71415 -0.744434
Spine1  -9.47484 -4.54423 -2.59897
HEad  -29.9603 -26.4927 16.389
LeftShoulder1  0 -2.42657e-020 -4.95415e-022
LeftArm  150.693 -68.6213 120.143
LeftForeArm  12.6662 -31.9114 -6.2958
LeftHand  -0.00651348 0.0849511 -8.449
RightShoulder  0 2.42657e-020 1.07489e-018
RightArm  -127.64 61.7248 -37.9354
RightForeArm  71.5253 16.0449 2.82939
RightHand  -7.31847 21.7932 -36.3934
LeftUpLeg  7.1662 -2.91766 5.81914
LeftLeg  8.55414 -2.71944 -0.232714
LeftFoot  20 0.202236 -1.14691
LeftToes  -7.88235 2.34596e-006 -6.06653e-008
513
root  11.4968 46.7076 -39.0011 -177.508 9.22774 -177.443
RightUpLeg  13.2668 -3.7737 -3.46865
RightLeg  10.4206 8.2293 0.971174
RightFoot  30.4632 -0.92636 3.77869
RightToes  -44.3535 -0.254161 -0.33837
Spine  -3.06331 -1.07013 -0.289825
Spine1  -7.82627 -3.15239 -3.66126
HEad  -31.7035 -28.0886 18.5977
LeftShoulder1  0 -2.42657e-020 -4.95415e-022
LeftArm  146.035 -67.6385 122.744
LeftForeArm  14.6831 -28.4916 -5.48387
LeftHand  0.0198743 -0.542749 -4.62334
RightShoulder  0 2.42657e-020 1.07489e-018
RightArm  -147.49 54.9819 -49.2921
RightForeArm  57.7752 2.57274 0.422212
RightHand  0.681966 9.6594 8.43361
LeftUpLeg  7.1475 -2.03289 6.3008
LeftLeg  8.55321 -2.44029 -0.208903
LeftFoot  21.1862 0.211806 -1.1325
LeftToes  -6.49316 2.34596e-006 -6.06653e-008
